#!OML:ASF X:\für Bonn\!DataBase\2005_08_12_Daniel\c3d\Daniel.ASF
:FULLY-SPECIFIED
:DEGREES
2135
root -26.0774 17.7876 25.169 -379.062 79.0639 -383.056
lowerback 16.0793 4.29966 2.32849
upperback 3.57721 6.04481 -3.53306
thorax -4.51787 3.03894 -6.2389
lowerneck -0.485058 6.39053 0.521728
upperneck 5.09683 9.33891 -11.2542
head 2.37031 4.51947 -3.54975
rclavicle 3.81667e-014 1.11319e-014
rhumerus -33.8471 2.68927 -94.8698
rradius 44.6788
rwrist 7.69074
rhand -20.2138 23.1394
rfingers 7.12502
rthumb 6.13343 -6.75186
lclavicle 3.81667e-014 1.11319e-014
lhumerus -51.1536 12.6627 82.2894
lradius 58.0665
lwrist 9.97676
lhand -8.49315 -9.8546
lfingers 7.12502
lthumb 17.4343 19.3836
rfemur 16.8156 -14.0571 24.3164
rtibia -1.90833e-014
rfoot -21.0398 -23.5817
rtoes -16.8129
lfemur -33.3186 9.77301 -28.6127
ltibia 64.7753
lfoot -35.0806 8.31494
ltoes -29.948
2136
root -25.9884 17.7652 25.1653 -381.04 79.4646 -385.212
lowerback 15.9232 4.24258 2.31246
upperback 3.5746 5.96741 -3.48983
thorax -4.4526 3.00249 -6.15378
lowerneck -0.454881 6.42904 0.52818
upperneck 5.06647 9.39869 -11.3783
head 2.36759 4.55047 -3.59338
rclavicle -3.22031e-014 2.38542e-015
rhumerus -34.4289 3.23739 -95.6322
rradius 45.3401
rwrist 8.40229
rhand -20.4578 23.4571
rfingers 7.12502
rthumb 5.89785 -6.44082
lclavicle -3.22031e-014 2.38542e-015
lhumerus -51.3419 12.6968 82.9889
lradius 59.613
lwrist 10.5243
lhand -8.62807 -10.0925
lfingers 7.12502
lthumb 17.3044 19.1572
rfemur 16.8842 -14.3184 24.4242
rtibia 6.36111e-014
rfoot -20.2424 -23.8933
rtoes -17.4465
lfemur -32.9992 9.11964 -28.3507
ltibia 64.7751
lfoot -35.3491 8.50366
ltoes -29.7651
2137
root -25.8986 17.7434 25.1598 -383.185 79.847 -387.535
lowerback 15.778 4.18278 2.31894
upperback 3.56042 5.88903 -3.46162
thorax -4.40139 2.96461 -6.09951
lowerneck -0.354049 6.46437 0.517545
upperneck 4.96647 9.43907 -11.4499
head 2.32282 4.57677 -3.61901
rclavicle 1.78906e-014 4.85035e-014
rhumerus -35.0058 3.68495 -96.3648
rradius 45.8785
rwrist 9.23299
rhand -20.6376 23.7325
rfingers 7.12502
rthumb 5.72426 -6.17017
lclavicle 1.78906e-014 4.85035e-014
lhumerus -51.5089 12.7359 83.6062
lradius 61.107
lwrist 10.8499
lhand -8.71406 -10.3615
lfingers 7.12502
lthumb 17.2217 18.8954
rfemur 16.9604 -14.5743 24.5204
rtibia -7.95139e-014
rfoot -19.4093 -24.2109
rtoes -18.1037
lfemur -32.6617 8.47321 -28.0852
ltibia 64.7518
lfoot -35.622 8.67337
ltoes -29.6224
2138
root -25.8075 17.7233 25.1525 -385.483 80.2016 -389.998
lowerback 15.6364 4.10939 2.31622
upperback 3.55821 5.79227 -3.4167
thorax -4.34407 2.91811 -6.01895
lowerneck -0.279906 6.5234 0.43933
upperneck 4.87295 9.51364 -11.5097
head 2.2829 4.61815 -3.62607
rclavicle 6.55989e-014 -1.90833e-014
rhumerus -35.5539 4.2513 -97.0632
rradius 46.2977
rwrist 10.0279
rhand -20.8289 23.9527
rfingers 7.12502
rthumb 5.53954 -5.95485
lclavicle 6.55989e-014 -1.90833e-014
lhumerus -51.5901 12.8988 84.1827
lradius 62.5124
lwrist 11.0509
lhand -8.69006 -10.594
lfingers 7.12502
lthumb 17.2448 18.6608
rfemur 17.0577 -14.8146 24.5879
rtibia 1.90833e-014
rfoot -18.5044 -24.5181
rtoes -18.6438
lfemur -32.2914 7.8572 -27.8228
ltibia 64.6985
lfoot -35.8845 8.8228
ltoes -29.4133
2139
root -25.7137 17.703 25.145 -387.861 80.5411 -392.509
lowerback 15.5038 4.0389 2.30019
upperback 3.56026 5.69748 -3.37497
thorax -4.2876 2.87287 -5.93569
lowerneck -0.130325 6.57457 0.279717
upperneck 4.71751 9.56398 -11.5057
head 2.19798 4.65184 -3.59998
rclavicle 3.53837e-014 -2.22639e-014
rhumerus -36.0769 4.70929 -97.7012
rradius 46.5503
rwrist 10.7322
rhand -20.9453 24.2087
rfingers 7.12502
rthumb 5.42719 -5.7018
lclavicle 3.53837e-014 -2.22639e-014
lhumerus -51.6429 13.0428 84.7149
lradius 63.8537
lwrist 11.1032
lhand -8.54341 -10.8565
lfingers 7.12502
lthumb 17.3859 18.3859
rfemur 15.4332 -15.0931 24.6062
rtibia 3.24618
rfoot -19.0476 -24.2662
rtoes -18.9769
lfemur -31.8701 7.25499 -27.5725
ltibia 64.6189
lfoot -36.1705 8.93764
ltoes -29.2484
2140
root -25.6178 17.681 25.1358 -390.595 80.8575 -395.313
lowerback 15.4081 3.96068 2.32566
upperback 3.58741 5.60101 -3.33015
thorax -4.2206 2.82782 -5.87461
lowerneck 0.028092 6.62627 0.101622
upperneck 4.55425 9.61233 -11.4878
head 2.10694 4.68515 -3.56647
rclavicle -4.41302e-014 1.11319e-014
rhumerus -36.5606 5.1009 -98.2819
rradius 46.6623
rwrist 11.2596
rhand -21.0188 24.4905
rfingers 7.12502
rthumb 5.35621 -5.42181
lclavicle -4.41302e-014 1.11319e-014
lhumerus -51.6235 13.1836 85.2143
lradius 65.0894
lwrist 11.1254
lhand -8.23651 -11.142
lfingers 7.12502
lthumb 17.6813 18.0741
rfemur 11.3137 -15.4551 24.5589
rtibia 11.2245
rfoot -21.5794 -23.1099
rtoes -19.1994
lfemur -31.3672 6.65459 -27.2943
ltibia 64.5144
lfoot -36.457 9.03426
ltoes -29.0604
